# xmcd CD database file
#
# Track frame offsets:
#	150
#	26190
#	49842
#	76394
#	97685
#	121463
#	142434
#	161858
#	188559
#	212441
#	237018
#	262707
#	288425
#
# Disc length: 3891 seconds
#
# Revision: 0
# Processed by: cddbd v1.5.2PL0 Copyright (c) Steve Scherf et al.
# Submitted via: CDex 1.51
#
DISCID=b10f310d
DTITLE=Laurent Katz - L. Katz
DYEAR=1900
DGENRE=Jazz
TTITLE0=Mr the Hawke
TTITLE1=Angel Eyes
TTITLE2=How would you feel
TTITLE3=Love for sale
TTITLE4=La nuit
TTITLE5=15 de dos la nuit
TTITLE6=Time after time
TTITLE7=A foggy day
TTITLE8=Casablanca
TTITLE9=It's alright with me
TTITLE10=Imagination
TTITLE11=East of the sun
TTITLE12=Sonar
EXTD=
EXTT0=
EXTT1=
EXTT2=
EXTT3=
EXTT4=
EXTT5=
EXTT6=
EXTT7=
EXTT8=
EXTT9=
EXTT10=
EXTT11=
EXTT12=
PLAYORDER=
